#!OML:ASF F:\VICON\USERDATA\INSTALL\Justin_Nancy\Justin_Nancy.ASF
:FULLY-SPECIFIED
:DEGREES
80
root 9.35665 17.4716 -17.0421 -0.401213 -1.70633 0.00416428
lowerback 5.45592 0.998243 0.278869
upperback -0.0220985 1.40482 1.79372
thorax -3.1206 0.708227 1.57816
lowerneck -16.0528 -4.94022 -10.0385
upperneck 21.4404 -5.90406 6.81701
head 9.97952 -2.79624 3.27073
rclavicle -1.15047e-014 -1.19271e-014
rhumerus -29.7256 -13.6074 -77.4285
rradius 37.6472
rwrist 1.10365
rhand -13.9895 13.9666
rfingers 7.12502
rthumb 12.1392 -15.6613
lclavicle -1.15047e-014 -1.19271e-014
lhumerus -38.4188 21.6133 76.3528
lradius 18.9876
lwrist -18.4071
lhand -11.5191 24.425
lfingers 7.12502
lthumb 14.5204 53.8969
rfemur 3.24954 2.99965 25.9671
rtibia 44.1242
rfoot 3.34546 1.94069
rtoes -2.37108
lfemur -21.6794 -0.633899 -19.7454
ltibia 23.1311
lfoot -3.01335 -1.31914
ltoes -1.3599
81
root 9.36393 17.4899 -16.8856 -0.522453 -1.65972 0.315025
lowerback 5.50015 0.934242 0.0195545
upperback 0.124254 1.29847 1.71113
thorax -2.99537 0.657732 1.64765
lowerneck -16.239 -4.97083 -10.1682
upperneck 21.3213 -5.91537 6.93162
head 9.98141 -2.79482 3.3275
rclavicle -3.85145e-015 5.56597e-015
rhumerus -29.6941 -13.817 -77.4885
rradius 37.2532
rwrist 1.26727
rhand -13.8404 13.7105
rfingers 7.12502
rthumb 12.283 -15.9088
lclavicle -3.85145e-015 5.56597e-015
lhumerus -38.1242 20.9016 76.928
lradius 19.4979
lwrist -16.8227
lhand -12.0985 25.333
lfingers 7.12502
lthumb 13.962 54.8442
rfemur 1.77148 2.39771 25.3357
rtibia 46.9411
rfoot 5.7262 2.4709
rtoes 0.382257
lfemur -20.9963 -0.110342 -20.2361
ltibia 23.1171
lfoot -3.3694 -2.10447
ltoes -0.449191
82
root 9.36873 17.5092 -16.735 -0.605239 -1.5184 0.808779
lowerback 5.66731 0.828739 -0.533956
upperback 0.136287 1.12167 1.65778
thorax -3.08115 0.577659 1.91609
lowerneck -16.2743 -4.98217 -10.272
upperneck 21.309 -5.87621 6.83999
head 9.981 -2.79471 3.31681
rclavicle 1.17283e-014 -4.77083e-015
rhumerus -29.8633 -13.7463 -77.4994
rradius 37.04
rwrist 1.46853
rhand -13.6251 13.3156
rfingers 7.12502
rthumb 12.4906 -16.2912
lclavicle 1.17283e-014 -4.77083e-015
lhumerus -37.9749 21.3474 76.8537
lradius 19.3981
lwrist -16.7685
lhand -12.8377 25.6856
lfingers 7.12502
lthumb 13.2497 55.2445
rfemur 0.0719523 1.75324 24.5528
rtibia 49.8872
rfoot 8.35536 2.91051
rtoes 2.72326
lfemur -20.2193 0.183541 -20.9156
ltibia 22.8488
lfoot -3.64038 -2.62434
ltoes -1.1324
83
root 9.3712 17.5143 -16.587 -0.803163 -1.58097 1.4155
lowerback 6.04574 0.825671 -1.12286
upperback 0.172422 1.07189 1.49084
thorax -3.26195 0.561411 2.07495
lowerneck -16.6364 -5.00112 -10.3541
upperneck 21.5126 -5.85313 6.84438
head 10.1229 -2.78447 3.33332
rclavicle 9.36773e-015 7.15625e-015
rhumerus -30.1814 -13.7384 -77.5649
rradius 36.8234
rwrist 1.72537
rhand -13.5249 13.1461
rfingers 7.12502
rthumb 12.5871 -16.4547
lclavicle 9.36773e-015 7.15625e-015
lhumerus -37.7125 20.9177 77.1159
lradius 19.6373
lwrist -16.1779
lhand -12.8784 25.8889
lfingers 7.12502
lthumb 13.2104 55.4503
rfemur -1.53814 1.39988 23.6904
rtibia 52.8524
rfoot 10.9205 3.14289
rtoes 6.06465
lfemur -19.2287 0.473959 -21.6769
ltibia 22.2733
lfoot -3.45129 -2.76941
ltoes -1.6168
84
root 9.37757 17.5296 -16.4321 -0.977684 -1.83721 2.02449
lowerback 6.21449 0.875091 -1.58213
upperback 0.280821 1.0947 1.22579
thorax -3.24902 0.576683 2.05594
lowerneck -16.9962 -4.95448 -10.383
upperneck 21.713 -5.79358 7.01299
head 10.2628 -2.73454 3.40629
rclavicle -6.21202e-016 7.95139e-015
rhumerus -30.5557 -13.7842 -77.7787
rradius 37.1433
rwrist 2.59263
rhand -12.6204 11.095
rfingers 7.12502
rthumb 13.4591 -18.4501
lclavicle -6.21202e-016 7.95139e-015
lhumerus -37.4367 18.9891 78.082
lradius 20.69
lwrist -13.7996
lhand -12.9726 26.7586
lfingers 7.12502
lthumb 13.1196 56.3259
rfemur -3.11685 1.24435 22.7818
rtibia 55.6706
rfoot 13.105 3.15422
rtoes 7.4665
lfemur -18.2422 0.689911 -22.4188
ltibia 21.707
lfoot -3.1572 -2.61054
ltoes -2.01553
85
root 9.39094 17.5578 -16.2778 -1.11866 -1.90271 2.76833
lowerback 6.22934 0.902349 -2.07761
upperback 0.455098 1.08538 0.904082
thorax -3.07974 0.573448 2.004
lowerneck -17.2462 -4.95152 -10.3468
upperneck 21.6647 -5.80234 7.1388
head 10.2959 -2.71569 3.44084
rclavicle 5.29264e-015 -5.56597e-015
rhumerus -30.6571 -13.9292 -77.9679
rradius 36.8004
rwrist 2.58548
rhand -12.1062 10.37
rfingers 7.12502
rthumb 13.9546 -19.1417
lclavicle 5.29264e-015 -5.56597e-015
lhumerus -36.8608 17.7481 78.6757
lradius 21.083
lwrist -12.8081
lhand -13.287 25.9022
lfingers 7.12502
lthumb 12.8165 55.4888
rfemur -4.63372 0.80029 21.6164
rtibia 58.2433
rfoot 14.8395 3.27736
rtoes 7.31545
lfemur -17.224 0.871616 -23.3748
ltibia 21.207
lfoot -3.17905 -2.78177
ltoes -2.28898
86
root 9.38989 17.5829 -16.1238 -1.33485 -2.11348 2.99514
lowerback 6.3011 0.94087 -2.32654
upperback 0.634636 1.11708 0.859591
thorax -2.93998 0.588596 2.09561
lowerneck -17.3496 -4.95167 -10.2354
upperneck 21.5052 -5.77722 6.99057
head 10.2471 -2.70869 3.36861
rclavicle -4.07509e-015 3.18055e-015
rhumerus -30.556 -13.727 -78.1684
rradius 35.928
rwrist 1.30751
rhand -12.7896 12.7917
rfingers 7.12502
rthumb 13.296 -16.7641
lclavicle -4.07509e-015 3.18055e-015
lhumerus -36.3149 17.166 79.0636
lradius 21.2139
lwrist -12.4336
lhand -13.6387 25.1931
lfingers 7.12502
lthumb 12.4775 54.8006
rfemur -6.05507 0.680236 21.2567
rtibia 60.5893
rfoot 16.1084 2.89781
rtoes 11.6305
lfemur -15.999 1.12283 -23.6651
ltibia 20.6376
lfoot -3.23615 -2.94304
ltoes -1.76032
87
root 9.39385 17.6039 -15.9731 -1.3544 -2.22946 3.18738
lowerback 6.34079 0.872857 -2.51502
upperback 0.568398 1.01241 0.872621
thorax -3.02852 0.540793 2.2236
lowerneck -17.0694 -4.80258 -10.2982
upperneck 21.3102 -5.54846 6.90679
head 10.1014 -2.62258 3.3831
rclavicle -4.19933e-015 1.59028e-015
rhumerus -30.7113 -13.5895 -78.1266
rradius 35.6158
rwrist 2.45691
rhand -13.4311 17.7417
rfingers 7.12502
rthumb 12.6776 -11.8536
lclavicle -4.19933e-015 1.59028e-015
lhumerus -36.2432 16.3722 79.5581
lradius 21.8635
lwrist -11.7439
lhand -12.9551 27.4391
lfingers 7.12502
lthumb 13.1365 57.0053
rfemur -7.6304 0.352958 20.8866
rtibia 62.7515
rfoot 16.1897 2.40372
rtoes 14.6535
lfemur -15.1083 1.30941 -23.9426
ltibia 20.2508
lfoot -3.32343 -3.04175
ltoes -1.53543
88
root 9.39541 17.6257 -15.8223 -1.44876 -2.1793 3.54104
lowerback 6.50554 0.752827 -2.88129
upperback 0.539653 0.820753 0.842893
thorax -3.14425 0.452034 2.4148
lowerneck -17.0452 -4.65774 -10.464
upperneck 21.3226 -5.31532 6.96246
head 10.0851 -2.52316 3.46543
rclavicle -2.28602e-015 -7.95139e-016
rhumerus -30.7552 -13.2661 -78.2075
rradius 35.1319
rwrist 3.10079
rhand -12.5993 13.6528
rfingers 7.12502
rthumb 13.4794 -15.891
lclavicle -2.28602e-015 -7.95139e-016
lhumerus -36.0753 15.9142 79.8285
lradius 22.3007
lwrist -11.7063
lhand -12.2521 29.5379
lfingers 7.12502
lthumb 13.814 59.0592
rfemur -9.0219 -0.222693 20.3195
rtibia 64.7623
rfoot 15.0764 1.83924
rtoes 13.1542
lfemur -14.4255 1.21359 -24.373
ltibia 20.1656
lfoot -3.21546 -3.00652
ltoes 0.383665
89
root 9.39322 17.638 -15.678 -1.5647 -2.09039 3.63223
lowerback 6.6986 0.698113 -2.93172
upperback 0.580382 0.737367 0.798656
thorax -3.20495 0.411322 2.40385
lowerneck -17.0348 -4.66835 -10.4225
upperneck 21.3477 -5.33033 6.90649
head 10.0908 -2.53348 3.43663
rclavicle -1.2921e-014 -6.36111e-015
rhumerus -30.7666 -13.3128 -78.3221
rradius 34.557
rwrist 3.49894
rhand -12.5303 12.9674
rfingers 7.12502
rthumb 13.5459 -16.572
lclavicle -1.2921e-014 -6.36111e-015
lhumerus -35.5365 15.6912 79.8699
lradius 22.135
lwrist -11.9117
lhand -13.2153 27.8016
lfingers 7.12502
lthumb 12.8857 57.3838
rfemur -10.3858 -0.862755 20.1122
rtibia 66.6221
rfoot 13.2256 1.25844
rtoes 11.612
lfemur -13.7235 1.18362 -24.5153
ltibia 20.0346
lfoot -3.12238 -3.12011
ltoes 1.75126
